<?xml version="1.0" encoding="utf-8"?>
<!-- Generator: Adobe Illustrator 25.3.1, SVG Export Plug-In . SVG Version: 6.00 Build 0)  -->
<svg version="1.1" id="图层_1" xmlns="http://www.w3.org/2000/svg" xmlns:xlink="http://www.w3.org/1999/xlink" x="0px" y="0px"
	 viewBox="0 0 639.6 447.8" style="enable-background:new 0 0 639.6 447.8;" xml:space="preserve">
<path d="M626.2,70.1c-7.4-27.4-29-49-56.4-56.4C519.8,0,319.6,0,319.6,0S119.5,0,69.4,13.2c-26.9,7.4-49,29.5-56.4,56.9
	C0,120.1,0,223.9,0,223.9s0,104.3,13.2,153.8c7.4,27.4,29,49,56.4,56.4c50.6,13.7,250.2,13.7,250.2,13.7s200.1,0,250.2-13.2
	c27.4-7.4,49-29,56.4-56.4c13.2-50,13.2-153.8,13.2-153.8S639.9,120.1,626.2,70.1z M256,319.7V128l166.4,95.9L256,319.7z"/>
</svg>
